<svg xmlns="http://www.w3.org/2000/svg" width="1680" height="1240" viewBox="0 0 1680 1240">
<rect width="100%" height="100%" fill="#0f172a"/>
<circle cx="840.0" cy="640.0" r="220" fill="none" stroke="#334155" stroke-width="1" stroke-opacity="0.75"/>
<circle cx="840.0" cy="640.0" r="340" fill="none" stroke="#334155" stroke-width="1" stroke-opacity="0.55"/>
<circle cx="840.0" cy="640.0" r="455" fill="none" stroke="#334155" stroke-width="1" stroke-opacity="0.35"/>
<text x="44" y="48" font-size="24" font-weight="800" fill="#f8fafc">本周供应关系图 2026-08-03 至 2026-08-09</text>
<text x="44" y="74" font-size="12" fill="#94a3b8">Obsidian 风格网络图，基于 state/supply_graph_baseline.json 生成；边以 Edge ID 标出并可悬停查看。</text>
<text x="44" y="1190" font-size="11" fill="#94a3b8">边颜色：绿色=新增，蓝色=强化，橙色=风险/媒体报道，灰色=基线关系。Edge ID 可在周报 6.2 与 JSON 中追溯。</text>
<path d="M 840.0 210.0 Q 872.6 400.2 970.4 110.8" fill="none" stroke="#64748b" stroke-width="1.5" stroke-opacity="0.72"/>
<g><title>E01 Apple Maps EV routing and in-vehicle navigation for Ford Universal EV Platform</title>
<rect x="845.4" y="267.8" width="34" height="17" rx="3" fill="#0f172a" fill-opacity="0.94" stroke="#64748b" stroke-width="0.9"/>
<text x="862.4" y="280.3" text-anchor="middle" font-size="8.5" font-weight="700" fill="#64748b">E01</text></g>
<path d="M 1201.4 232.1 Q 984.1 444.9 1055.0 267.6" fill="none" stroke="#64748b" stroke-width="1.5" stroke-opacity="0.72"/>
<g><title>E02 AMD Helios, ND MI455X v7 and EPYC for Azure AI and HPC infrastructure</title>
<rect x="1088.1" y="308.6" width="34" height="17" rx="3" fill="#0f172a" fill-opacity="0.94" stroke="#64748b" stroke-width="0.9"/>
<text x="1105.1" y="321.1" text-anchor="middle" font-size="8.5" font-weight="700" fill="#64748b">E02</text></g>
<path d="M 1349.6 446.7 Q 1021.1 498.6 1055.0 267.6" fill="none" stroke="#64748b" stroke-width="1.5" stroke-opacity="0.72"/>
<g><title>E03 Frontier AI model services for enterprises and regulated industries</title>
<rect x="1181.6" y="444.1" width="34" height="17" rx="3" fill="#0f172a" fill-opacity="0.94" stroke="#64748b" stroke-width="0.9"/>
<text x="1198.6" y="456.6" text-anchor="middle" font-size="8.5" font-weight="700" fill="#64748b">E03</text></g>
<path d="M 1212.4 425.0 Q 1068.4 602.7 1381.0 705.7" fill="none" stroke="#64748b" stroke-width="1.5" stroke-opacity="0.72"/>
<g><title>E04 Google Cloud AI services, TPU pods and cloud infrastructure</title>
<rect x="1150.9" y="505.5" width="34" height="17" rx="3" fill="#0f172a" fill-opacity="0.94" stroke="#64748b" stroke-width="0.9"/>
<text x="1167.9" y="518.0" text-anchor="middle" font-size="8.5" font-weight="700" fill="#64748b">E04</text></g>
<path d="M 467.6 855.0 Q 854.4 693.8 1270.0 640.0" fill="none" stroke="#64748b" stroke-width="1.5" stroke-opacity="0.72"/>
<g><title>E05 Claude Opus 5 availability on Amazon Bedrock</title>
<rect x="661.6" y="765.8" width="34" height="17" rx="3" fill="#0f172a" fill-opacity="0.94" stroke="#64748b" stroke-width="0.9"/>
<text x="678.6" y="778.3" text-anchor="middle" font-size="8.5" font-weight="700" fill="#64748b">E05</text></g>
<path d="M 1212.4 855.0 Q 1045.2 771.1 1288.5 949.6" fill="none" stroke="#64748b" stroke-width="1.5" stroke-opacity="0.72"/>
<g><title>E06 Facebook, Instagram, WhatsApp, Threads and advertising systems</title>
<rect x="1135.0" y="818.8" width="34" height="17" rx="3" fill="#0f172a" fill-opacity="0.94" stroke="#64748b" stroke-width="0.9"/>
<text x="1152.0" y="831.3" text-anchor="middle" font-size="8.5" font-weight="700" fill="#64748b">E06</text></g>
<path d="M 1055.0 1012.4 Q 957.1 853.7 1093.3 1122.6" fill="none" stroke="#64748b" stroke-width="1.5" stroke-opacity="0.72"/>
<g><title>E07 NVIDIA AI infrastructure for AI factories and SK Telecom AI infrastructure</title>
<rect x="1002.2" y="947.9" width="34" height="17" rx="3" fill="#0f172a" fill-opacity="0.94" stroke="#64748b" stroke-width="0.9"/>
<text x="1019.2" y="960.4" text-anchor="middle" font-size="8.5" font-weight="700" fill="#64748b">E07</text></g>
<path d="M 467.6 425.0 Q 800.7 679.3 1055.0 1012.4" fill="none" stroke="#64748b" stroke-width="1.5" stroke-opacity="0.72"/>
<g><title>E08 HBM and next-generation AI memory ecosystem</title>
<rect x="624.7" y="558.1" width="34" height="17" rx="3" fill="#0f172a" fill-opacity="0.94" stroke="#64748b" stroke-width="0.9"/>
<text x="641.7" y="570.6" text-anchor="middle" font-size="8.5" font-weight="700" fill="#64748b">E08</text></g>
<path d="M 410.0 640.0 Q 732.5 776.2 840.0 1185.0" fill="none" stroke="#64748b" stroke-width="1.5" stroke-opacity="0.72"/>
<g><title>E09 HBM, 2nm-and-below foundry and 2.3D/2.5D advanced packaging</title>
<rect x="551.5" y="723.4" width="34" height="17" rx="3" fill="#0f172a" fill-opacity="0.94" stroke="#64748b" stroke-width="0.9"/>
<text x="568.5" y="735.9" text-anchor="middle" font-size="8.5" font-weight="700" fill="#64748b">E09</text></g>
<path d="M 840.0 1070.0 Q 776.7 868.1 586.7 1122.6" fill="none" stroke="#64748b" stroke-width="1.5" stroke-opacity="0.72"/>
<g><title>E10 Electric vehicles, energy storage systems and energy services</title>
<rect x="779.6" y="984.3" width="34" height="17" rx="3" fill="#0f172a" fill-opacity="0.94" stroke="#64748b" stroke-width="0.9"/>
<text x="796.6" y="996.8" text-anchor="middle" font-size="8.5" font-weight="700" fill="#64748b">E10</text></g>
<path d="M 625.0 267.6 Q 840.0 640.0 1055.0 1012.4" fill="none" stroke="#64748b" stroke-width="1.5" stroke-opacity="0.72"/>
<g><title>E11 Advanced-node foundry and advanced packaging for AI GPUs</title>
<rect x="724.1" y="458.7" width="34" height="17" rx="3" fill="#0f172a" fill-opacity="0.94" stroke="#64748b" stroke-width="0.9"/>
<text x="741.1" y="471.2" text-anchor="middle" font-size="8.5" font-weight="700" fill="#64748b">E11</text></g>
<path d="M 625.0 267.6 Q 786.2 439.4 840.0 210.0" fill="none" stroke="#64748b" stroke-width="1.5" stroke-opacity="0.72"/>
<g><title>E12 Advanced-node foundry for Apple A-series and M-series chips</title>
<rect x="687.2" y="321.1" width="34" height="17" rx="3" fill="#0f172a" fill-opacity="0.94" stroke="#64748b" stroke-width="0.9"/>
<text x="704.2" y="333.6" text-anchor="middle" font-size="8.5" font-weight="700" fill="#64748b">E12</text></g>
<path d="M 1055.0 1012.4 Q 781.6 810.5 391.5 949.6" fill="none" stroke="#64748b" stroke-width="1.5" stroke-opacity="0.72"/>
<g><title>E13 Vera Rubin systems, long-term compute access and compute-platform co-development</title>
<rect x="881.9" y="918.2" width="34" height="17" rx="3" fill="#0f172a" fill-opacity="0.94" stroke="#64748b" stroke-width="0.9"/>
<text x="898.9" y="930.7" text-anchor="middle" font-size="8.5" font-weight="700" fill="#64748b">E13</text></g>
<path d="M 1270.0 640.0 Q 893.8 733.1 625.0 1012.4" fill="none" stroke="#64748b" stroke-width="1.5" stroke-opacity="0.72"/>
<g><title>E14 Trainium-based multi-year, multi-gigawatt AI compute commitment</title>
<rect x="1057.7" y="693.8" width="34" height="17" rx="3" fill="#0f172a" fill-opacity="0.94" stroke="#64748b" stroke-width="0.9"/>
<text x="1074.7" y="706.3" text-anchor="middle" font-size="8.5" font-weight="700" fill="#64748b">E14</text></g>
<path d="M 1270.0 640.0 Q 854.4 693.8 467.6 855.0" fill="none" stroke="#64748b" stroke-width="1.5" stroke-opacity="0.72"/>
<g><title>E15 Trainium-based multi-year, multi-gigawatt AI compute commitment</title>
<rect x="1030.7" y="666.9" width="34" height="17" rx="3" fill="#0f172a" fill-opacity="0.94" stroke="#64748b" stroke-width="0.9"/>
<text x="1047.7" y="679.4" text-anchor="middle" font-size="8.5" font-weight="700" fill="#64748b">E15</text></g>
<path d="M 1055.0 267.6 Q 758.5 563.3 299.0 705.7" fill="none" stroke="#64748b" stroke-width="1.5" stroke-opacity="0.72"/>
<g><title>E16 Azure cloud and AI services plus Microsoft 365 Copilot</title>
<rect x="866.0" y="406.1" width="34" height="17" rx="3" fill="#0f172a" fill-opacity="0.94" stroke="#64748b" stroke-width="0.9"/>
<text x="883.0" y="418.6" text-anchor="middle" font-size="8.5" font-weight="700" fill="#64748b">E16</text></g>
<path d="M 410.0 640.0 Q 605.1 591.7 330.4 446.7" fill="none" stroke="#f59e0b" stroke-width="1.5" stroke-opacity="0.72"/>
<g><title>E17 Long-term server-memory and AI-infrastructure chip supply contracts</title>
<rect x="464.1" y="596.9" width="34" height="17" rx="3" fill="#0f172a" fill-opacity="0.94" stroke="#f59e0b" stroke-width="0.9"/>
<text x="481.1" y="609.4" text-anchor="middle" font-size="8.5" font-weight="700" fill="#f59e0b">E17</text></g>
<path d="M 467.6 425.0 Q 656.6 484.3 478.6 232.1" fill="none" stroke="#64748b" stroke-width="1.5" stroke-opacity="0.72"/>
<g><title>E18 HBM4, AI server DRAM, eSSD and long-term supply agreements</title>
<rect x="525.9" y="424.3" width="34" height="17" rx="3" fill="#0f172a" fill-opacity="0.94" stroke="#64748b" stroke-width="0.9"/>
<text x="542.9" y="436.8" text-anchor="middle" font-size="8.5" font-weight="700" fill="#64748b">E18</text></g>
<path d="M 467.6 425.0 Q 714.3 454.0 709.6 110.8" fill="none" stroke="#38bdf8" stroke-width="1.5" stroke-opacity="0.72"/>
<g><title>E19 First open High Bandwidth Flash standard specification for AI inference memory tiers</title>
<rect x="565.5" y="403.5" width="34" height="17" rx="3" fill="#0f172a" fill-opacity="0.94" stroke="#38bdf8" stroke-width="0.9"/>
<text x="582.5" y="416.0" text-anchor="middle" font-size="8.5" font-weight="700" fill="#38bdf8">E19</text></g>
<circle cx="840.0" cy="210.0" r="29" fill="#a78bfa" fill-opacity="0.20" stroke="#a78bfa" stroke-width="2"/>
<circle cx="840.0" cy="210.0" r="5" fill="#a78bfa"/>
<text x="840.0" y="169.0" text-anchor="middle" font-size="12" font-weight="700" fill="#e5e7eb">Apple</text>
<circle cx="1055.0" cy="267.6" r="29" fill="#a78bfa" fill-opacity="0.20" stroke="#a78bfa" stroke-width="2"/>
<circle cx="1055.0" cy="267.6" r="5" fill="#a78bfa"/>
<text x="1055.0" y="226.6" text-anchor="middle" font-size="12" font-weight="700" fill="#e5e7eb">Microsoft</text>
<circle cx="1212.4" cy="425.0" r="29" fill="#a78bfa" fill-opacity="0.20" stroke="#a78bfa" stroke-width="2"/>
<circle cx="1212.4" cy="425.0" r="5" fill="#a78bfa"/>
<text x="1212.4" y="384.0" text-anchor="middle" font-size="12" font-weight="700" fill="#e5e7eb">Alphabet / Google</text>
<circle cx="1270.0" cy="640.0" r="29" fill="#a78bfa" fill-opacity="0.20" stroke="#a78bfa" stroke-width="2"/>
<circle cx="1270.0" cy="640.0" r="5" fill="#a78bfa"/>
<text x="1270.0" y="599.0" text-anchor="middle" font-size="12" font-weight="700" fill="#e5e7eb">Amazon / AWS</text>
<circle cx="1212.4" cy="855.0" r="29" fill="#a78bfa" fill-opacity="0.20" stroke="#a78bfa" stroke-width="2"/>
<circle cx="1212.4" cy="855.0" r="5" fill="#a78bfa"/>
<text x="1212.4" y="814.0" text-anchor="middle" font-size="12" font-weight="700" fill="#e5e7eb">Meta</text>
<circle cx="1055.0" cy="1012.4" r="29" fill="#a78bfa" fill-opacity="0.20" stroke="#a78bfa" stroke-width="2"/>
<circle cx="1055.0" cy="1012.4" r="5" fill="#a78bfa"/>
<text x="1055.0" y="971.4" text-anchor="middle" font-size="12" font-weight="700" fill="#e5e7eb">NVIDIA</text>
<circle cx="840.0" cy="1070.0" r="29" fill="#a78bfa" fill-opacity="0.20" stroke="#a78bfa" stroke-width="2"/>
<circle cx="840.0" cy="1070.0" r="5" fill="#a78bfa"/>
<text x="840.0" y="1029.0" text-anchor="middle" font-size="12" font-weight="700" fill="#e5e7eb">Tesla</text>
<circle cx="625.0" cy="1012.4" r="29" fill="#a78bfa" fill-opacity="0.20" stroke="#a78bfa" stroke-width="2"/>
<circle cx="625.0" cy="1012.4" r="5" fill="#a78bfa"/>
<text x="625.0" y="971.4" text-anchor="middle" font-size="12" font-weight="700" fill="#e5e7eb">OpenAI</text>
<circle cx="467.6" cy="855.0" r="29" fill="#a78bfa" fill-opacity="0.20" stroke="#a78bfa" stroke-width="2"/>
<circle cx="467.6" cy="855.0" r="5" fill="#a78bfa"/>
<text x="467.6" y="814.0" text-anchor="middle" font-size="12" font-weight="700" fill="#e5e7eb">Anthropic</text>
<circle cx="410.0" cy="640.0" r="29" fill="#a78bfa" fill-opacity="0.20" stroke="#a78bfa" stroke-width="2"/>
<circle cx="410.0" cy="640.0" r="5" fill="#a78bfa"/>
<text x="410.0" y="599.0" text-anchor="middle" font-size="12" font-weight="700" fill="#e5e7eb">Samsung Electronics</text>
<circle cx="467.6" cy="425.0" r="29" fill="#a78bfa" fill-opacity="0.20" stroke="#a78bfa" stroke-width="2"/>
<circle cx="467.6" cy="425.0" r="5" fill="#a78bfa"/>
<text x="467.6" y="384.0" text-anchor="middle" font-size="12" font-weight="700" fill="#e5e7eb">SK Hynix</text>
<circle cx="625.0" cy="267.6" r="29" fill="#a78bfa" fill-opacity="0.20" stroke="#a78bfa" stroke-width="2"/>
<circle cx="625.0" cy="267.6" r="5" fill="#a78bfa"/>
<text x="625.0" y="226.6" text-anchor="middle" font-size="12" font-weight="700" fill="#e5e7eb">TSMC</text>
<circle cx="970.4" cy="110.8" r="29" fill="#a78bfa" fill-opacity="0.20" stroke="#a78bfa" stroke-width="2"/>
<circle cx="970.4" cy="110.8" r="5" fill="#a78bfa"/>
<text x="970.4" y="69.8" text-anchor="middle" font-size="12" font-weight="700" fill="#e5e7eb">Ford</text>
<circle cx="1201.4" cy="232.1" r="29" fill="#a78bfa" fill-opacity="0.20" stroke="#a78bfa" stroke-width="2"/>
<circle cx="1201.4" cy="232.1" r="5" fill="#a78bfa"/>
<text x="1201.4" y="191.1" text-anchor="middle" font-size="12" font-weight="700" fill="#e5e7eb">AMD</text>
<circle cx="1349.6" cy="446.7" r="29" fill="#a78bfa" fill-opacity="0.20" stroke="#a78bfa" stroke-width="2"/>
<circle cx="1349.6" cy="446.7" r="5" fill="#a78bfa"/>
<text x="1349.6" y="405.7" text-anchor="middle" font-size="12" font-weight="700" fill="#e5e7eb">Mistral</text>
<circle cx="1381.0" cy="705.7" r="29" fill="#a78bfa" fill-opacity="0.20" stroke="#a78bfa" stroke-width="2"/>
<circle cx="1381.0" cy="705.7" r="5" fill="#a78bfa"/>
<text x="1381.0" y="664.7" text-anchor="middle" font-size="12" font-weight="700" fill="#e5e7eb">Google Cloud customers</text>
<circle cx="1288.5" cy="949.6" r="29" fill="#a78bfa" fill-opacity="0.20" stroke="#a78bfa" stroke-width="2"/>
<circle cx="1288.5" cy="949.6" r="5" fill="#a78bfa"/>
<text x="1288.5" y="908.6" text-anchor="middle" font-size="12" font-weight="700" fill="#e5e7eb">Meta users and advertisers</text>
<circle cx="1093.3" cy="1122.6" r="29" fill="#a78bfa" fill-opacity="0.20" stroke="#a78bfa" stroke-width="2"/>
<circle cx="1093.3" cy="1122.6" r="5" fill="#a78bfa"/>
<text x="1093.3" y="1081.6" text-anchor="middle" font-size="12" font-weight="700" fill="#e5e7eb">SK Group / SK Telecom</text>
<circle cx="840.0" cy="1185.0" r="22" fill="#94a3b8" fill-opacity="0.20" stroke="#94a3b8" stroke-width="2"/>
<circle cx="840.0" cy="1185.0" r="5" fill="#94a3b8"/>
<text x="840.0" y="1151.0" text-anchor="middle" font-size="12" font-weight="700" fill="#e5e7eb">Broadcom</text>
<circle cx="586.7" cy="1122.6" r="29" fill="#a78bfa" fill-opacity="0.20" stroke="#a78bfa" stroke-width="2"/>
<circle cx="586.7" cy="1122.6" r="5" fill="#a78bfa"/>
<text x="586.7" y="1074.6" text-anchor="middle" font-size="12" font-weight="700" fill="#e5e7eb">EV and energy storage</text>
<text x="586.7" y="1088.6" text-anchor="middle" font-size="12" font-weight="700" fill="#e5e7eb">customers</text>
<circle cx="391.5" cy="949.6" r="29" fill="#a78bfa" fill-opacity="0.20" stroke="#a78bfa" stroke-width="2"/>
<circle cx="391.5" cy="949.6" r="5" fill="#a78bfa"/>
<text x="391.5" y="908.6" text-anchor="middle" font-size="12" font-weight="700" fill="#e5e7eb">Safe Superintelligence</text>
<circle cx="299.0" cy="705.7" r="29" fill="#a78bfa" fill-opacity="0.20" stroke="#a78bfa" stroke-width="2"/>
<circle cx="299.0" cy="705.7" r="5" fill="#a78bfa"/>
<text x="299.0" y="664.7" text-anchor="middle" font-size="12" font-weight="700" fill="#e5e7eb">Azure and Copilot customers</text>
<circle cx="330.4" cy="446.7" r="29" fill="#a78bfa" fill-opacity="0.20" stroke="#a78bfa" stroke-width="2"/>
<circle cx="330.4" cy="446.7" r="5" fill="#a78bfa"/>
<text x="330.4" y="398.7" text-anchor="middle" font-size="12" font-weight="700" fill="#e5e7eb">Five unnamed global</text>
<text x="330.4" y="412.7" text-anchor="middle" font-size="12" font-weight="700" fill="#e5e7eb">data-center customers</text>
<circle cx="478.6" cy="232.1" r="29" fill="#a78bfa" fill-opacity="0.20" stroke="#a78bfa" stroke-width="2"/>
<circle cx="478.6" cy="232.1" r="5" fill="#a78bfa"/>
<text x="478.6" y="184.1" text-anchor="middle" font-size="12" font-weight="700" fill="#e5e7eb">Around ten unnamed key</text>
<text x="478.6" y="198.1" text-anchor="middle" font-size="12" font-weight="700" fill="#e5e7eb">memory customers</text>
<circle cx="709.6" cy="110.8" r="29" fill="#a78bfa" fill-opacity="0.20" stroke="#a78bfa" stroke-width="2"/>
<circle cx="709.6" cy="110.8" r="5" fill="#a78bfa"/>
<text x="709.6" y="69.8" text-anchor="middle" font-size="12" font-weight="700" fill="#e5e7eb">Sandisk</text>
</svg>