<svg xmlns="http://www.w3.org/2000/svg" width="1180" height="860" viewBox="0 0 1180 860">
<rect width="100%" height="100%" fill="#0f172a"/>
<circle cx="590" cy="448" r="160" fill="none" stroke="#334155" stroke-width="1" stroke-opacity="0.75"/>
<circle cx="590" cy="448" r="250" fill="none" stroke="#334155" stroke-width="1" stroke-opacity="0.55"/>
<circle cx="590" cy="448" r="335" fill="none" stroke="#334155" stroke-width="1" stroke-opacity="0.35"/>
<text x="40" y="44" font-size="22" font-weight="800" fill="#f8fafc">本周供应关系图 2026-06-29 至 2026-07-05</text>
<text x="40" y="68" font-size="12" fill="#94a3b8">Obsidian 风格网络图，基于 state/supply_graph_baseline.json 生成。</text>
<text x="40" y="820" font-size="11" fill="#94a3b8">边颜色：绿色=新增，蓝色=强化，橙色=风险/媒体报道，灰色=基线关系。</text>
<path d="M 590.0 133.0 Q 638.8 284.8 785.0 110.3" fill="none" stroke="#22c55e" stroke-width="1.5" stroke-opacity="0.72"/>
<text x="663.1" y="203.2" font-size="9" fill="#22c55e">E01 Apple Creator Studio、Final Cut Pro、Creat</text>
<path d="M 775.2 193.2 Q 733.8 384.3 980.0 448.0" fill="none" stroke="#22c55e" stroke-width="1.5" stroke-opacity="0.72"/>
<text x="805.7" y="352.4" font-size="9" fill="#22c55e">E02 Frontier Company、AI 工程服务、Azure/Microsoft</text>
<path d="M 889.6 545.3 Q 713.6 556.8 785.0 785.7" fill="none" stroke="#22c55e" stroke-width="1.5" stroke-opacity="0.72"/>
<text x="775.5" y="611.2" font-size="9" fill="#22c55e">E03 AWS Compute、EC2 UltraServers、云基础设施</text>
<path d="M 590.0 763.0 Q 636.3 463.0 775.2 193.2" fill="none" stroke="#38bdf8" stroke-width="1.5" stroke-opacity="0.72"/>
<text x="659.4" y="470.6" font-size="9" fill="#38bdf8">E04 GB300 Blackwell Ultra、Claude 模型推理基础设施</text>
<path d="M 590.0 763.0 Q 664.9 551.1 889.6 545.3" fill="none" stroke="#38bdf8" stroke-width="1.5" stroke-opacity="0.72"/>
<text x="702.3" y="602.6" font-size="9" fill="#38bdf8">E05 NVIDIA GPU、EC2 UltraServers、AI 集群网络</text>
<path d="M 290.4 545.3 Q 466.4 556.8 395.0 785.7" fill="none" stroke="#22c55e" stroke-width="1.5" stroke-opacity="0.72"/>
<text x="404.5" y="611.2" font-size="9" fill="#22c55e">E06 AI 驱动 5G 网络优化方案</text>
<path d="M 775.2 702.8 Q 538.8 511.7 200.0 448.0" fill="none" stroke="#22c55e" stroke-width="1.5" stroke-opacity="0.72"/>
<text x="513.2" y="543.6" font-size="9" fill="#22c55e">E07 WhatsApp 用户名预约、手机号隐私保护</text>
<path d="M 404.8 702.8 Q 495.0 427.3 395.0 110.3" fill="none" stroke="#64748b" stroke-width="1.5" stroke-opacity="0.72"/>
<text x="447.4" y="416.9" font-size="9" fill="#64748b">E08 车辆交付、储能部署</text>
<path d="M 290.4 350.7 Q 515.1 502.4 590.0 763.0" fill="none" stroke="#f59e0b" stroke-width="1.5" stroke-opacity="0.72"/>
<text x="477.7" y="529.6" font-size="9" fill="#f59e0b">E09 HBM4E/HBM4/HBM3E</text>
<path d="M 404.8 193.2 Q 543.7 463.0 590.0 763.0" fill="none" stroke="#64748b" stroke-width="1.5" stroke-opacity="0.72"/>
<text x="520.6" y="470.6" font-size="9" fill="#64748b">E10 先进制程与先进封装关键基线</text>
<circle cx="590.0" cy="133.0" r="29" fill="#a78bfa" fill-opacity="0.20" stroke="#a78bfa" stroke-width="2"/>
<circle cx="590.0" cy="133.0" r="5" fill="#a78bfa"/>
<text x="590.0" y="94.0" text-anchor="middle" font-size="13" font-weight="700" fill="#e5e7eb">Apple</text>
<circle cx="775.2" cy="193.2" r="29" fill="#a78bfa" fill-opacity="0.20" stroke="#a78bfa" stroke-width="2"/>
<circle cx="775.2" cy="193.2" r="5" fill="#a78bfa"/>
<text x="775.2" y="154.2" text-anchor="middle" font-size="13" font-weight="700" fill="#e5e7eb">Microsoft</text>
<circle cx="889.6" cy="350.7" r="29" fill="#a78bfa" fill-opacity="0.20" stroke="#a78bfa" stroke-width="2"/>
<circle cx="889.6" cy="350.7" r="5" fill="#a78bfa"/>
<text x="889.6" y="311.7" text-anchor="middle" font-size="13" font-weight="700" fill="#e5e7eb">Alphabet / Google</text>
<circle cx="889.6" cy="545.3" r="29" fill="#a78bfa" fill-opacity="0.20" stroke="#a78bfa" stroke-width="2"/>
<circle cx="889.6" cy="545.3" r="5" fill="#a78bfa"/>
<text x="889.6" y="506.3" text-anchor="middle" font-size="13" font-weight="700" fill="#e5e7eb">Amazon / AWS</text>
<circle cx="775.2" cy="702.8" r="29" fill="#a78bfa" fill-opacity="0.20" stroke="#a78bfa" stroke-width="2"/>
<circle cx="775.2" cy="702.8" r="5" fill="#a78bfa"/>
<text x="775.2" y="663.8" text-anchor="middle" font-size="13" font-weight="700" fill="#e5e7eb">Meta</text>
<circle cx="590.0" cy="763.0" r="29" fill="#a78bfa" fill-opacity="0.20" stroke="#a78bfa" stroke-width="2"/>
<circle cx="590.0" cy="763.0" r="5" fill="#a78bfa"/>
<text x="590.0" y="724.0" text-anchor="middle" font-size="13" font-weight="700" fill="#e5e7eb">NVIDIA</text>
<circle cx="404.8" cy="702.8" r="29" fill="#a78bfa" fill-opacity="0.20" stroke="#a78bfa" stroke-width="2"/>
<circle cx="404.8" cy="702.8" r="5" fill="#a78bfa"/>
<text x="404.8" y="663.8" text-anchor="middle" font-size="13" font-weight="700" fill="#e5e7eb">Tesla</text>
<circle cx="290.4" cy="545.3" r="29" fill="#a78bfa" fill-opacity="0.20" stroke="#a78bfa" stroke-width="2"/>
<circle cx="290.4" cy="545.3" r="5" fill="#a78bfa"/>
<text x="290.4" y="506.3" text-anchor="middle" font-size="13" font-weight="700" fill="#e5e7eb">Samsung Electronics</text>
<circle cx="290.4" cy="350.7" r="29" fill="#a78bfa" fill-opacity="0.20" stroke="#a78bfa" stroke-width="2"/>
<circle cx="290.4" cy="350.7" r="5" fill="#a78bfa"/>
<text x="290.4" y="311.7" text-anchor="middle" font-size="13" font-weight="700" fill="#e5e7eb">SK Hynix</text>
<circle cx="404.8" cy="193.2" r="29" fill="#a78bfa" fill-opacity="0.20" stroke="#a78bfa" stroke-width="2"/>
<circle cx="404.8" cy="193.2" r="5" fill="#a78bfa"/>
<text x="404.8" y="154.2" text-anchor="middle" font-size="13" font-weight="700" fill="#e5e7eb">TSMC</text>
<circle cx="785.0" cy="110.3" r="22" fill="#94a3b8" fill-opacity="0.20" stroke="#94a3b8" stroke-width="2"/>
<circle cx="785.0" cy="110.3" r="5" fill="#94a3b8"/>
<text x="785.0" y="78.3" text-anchor="middle" font-size="13" font-weight="700" fill="#e5e7eb">创意专业用户</text>
<circle cx="980.0" cy="448.0" r="22" fill="#94a3b8" fill-opacity="0.20" stroke="#94a3b8" stroke-width="2"/>
<circle cx="980.0" cy="448.0" r="5" fill="#94a3b8"/>
<text x="980.0" y="416.0" text-anchor="middle" font-size="13" font-weight="700" fill="#e5e7eb">企业AI客户</text>
<circle cx="785.0" cy="785.7" r="22" fill="#94a3b8" fill-opacity="0.20" stroke="#94a3b8" stroke-width="2"/>
<circle cx="785.0" cy="785.7" r="5" fill="#94a3b8"/>
<text x="785.0" y="753.7" text-anchor="middle" font-size="13" font-weight="700" fill="#e5e7eb">OpenAI</text>
<circle cx="395.0" cy="785.7" r="22" fill="#94a3b8" fill-opacity="0.20" stroke="#94a3b8" stroke-width="2"/>
<circle cx="395.0" cy="785.7" r="5" fill="#94a3b8"/>
<text x="395.0" y="753.7" text-anchor="middle" font-size="13" font-weight="700" fill="#e5e7eb">KDDI</text>
<circle cx="200.0" cy="448.0" r="22" fill="#94a3b8" fill-opacity="0.20" stroke="#94a3b8" stroke-width="2"/>
<circle cx="200.0" cy="448.0" r="5" fill="#94a3b8"/>
<text x="200.0" y="416.0" text-anchor="middle" font-size="13" font-weight="700" fill="#e5e7eb">WhatsApp用户</text>
<circle cx="395.0" cy="110.3" r="22" fill="#94a3b8" fill-opacity="0.20" stroke="#94a3b8" stroke-width="2"/>
<circle cx="395.0" cy="110.3" r="5" fill="#94a3b8"/>
<text x="395.0" y="78.3" text-anchor="middle" font-size="13" font-weight="700" fill="#e5e7eb">EV/储能客户</text>
</svg>