<svg xmlns="http://www.w3.org/2000/svg" width="1680" height="1240" viewBox="0 0 1680 1240">
<rect width="100%" height="100%" fill="#0f172a"/>
<circle cx="840.0" cy="640.0" r="220" fill="none" stroke="#334155" stroke-width="1" stroke-opacity="0.75"/>
<circle cx="840.0" cy="640.0" r="340" fill="none" stroke="#334155" stroke-width="1" stroke-opacity="0.55"/>
<circle cx="840.0" cy="640.0" r="455" fill="none" stroke="#334155" stroke-width="1" stroke-opacity="0.35"/>
<text x="44" y="48" font-size="24" font-weight="800" fill="#f8fafc">本周供应关系图 2026-08-17 至 2026-08-23</text>
<text x="44" y="74" font-size="12" fill="#94a3b8">Obsidian 风格网络图，基于 state/supply_graph_baseline.json 生成；边以 Edge ID 标出并可悬停查看。</text>
<text x="44" y="1190" font-size="11" fill="#94a3b8">边颜色：绿色=新增，蓝色=强化，橙色=风险/媒体报道，灰色=基线关系。Edge ID 可在周报 6.2 与 JSON 中追溯。</text>
<path d="M 840.0 210.0 Q 868.3 399.2 953.3 106.9" fill="none" stroke="#64748b" stroke-width="1.5" stroke-opacity="0.72"/>
<g><title>E01 Apple Maps EV routing and in-vehicle navigation for Ford Universal EV Platform</title>
<rect x="842.4" y="267.1" width="34" height="17" rx="3" fill="#0f172a" fill-opacity="0.94" stroke="#64748b" stroke-width="0.9"/>
<text x="859.4" y="279.6" text-anchor="middle" font-size="8.5" font-weight="700" fill="#64748b">E01</text></g>
<path d="M 1160.3 199.1 Q 973.8 436.7 1055.0 267.6" fill="none" stroke="#64748b" stroke-width="1.5" stroke-opacity="0.72"/>
<g><title>E02 AMD Helios, ND MI455X v7 and EPYC for Azure AI and HPC infrastructure</title>
<rect x="1062.1" y="287.7" width="34" height="17" rx="3" fill="#0f172a" fill-opacity="0.94" stroke="#64748b" stroke-width="0.9"/>
<text x="1079.1" y="300.2" text-anchor="middle" font-size="8.5" font-weight="700" fill="#64748b">E02</text></g>
<path d="M 1312.0 367.5 Q 1011.7 478.8 1055.0 267.6" fill="none" stroke="#64748b" stroke-width="1.5" stroke-opacity="0.72"/>
<g><title>E03 Frontier AI model services for enterprises and regulated industries</title>
<rect x="1157.9" y="394.1" width="34" height="17" rx="3" fill="#0f172a" fill-opacity="0.94" stroke="#64748b" stroke-width="0.9"/>
<text x="1174.9" y="406.6" text-anchor="middle" font-size="8.5" font-weight="700" fill="#64748b">E03</text></g>
<path d="M 1212.4 425.0 Q 1068.6 572.0 1382.0 583.0" fill="none" stroke="#64748b" stroke-width="1.5" stroke-opacity="0.72"/>
<g><title>E04 Google Cloud AI services, TPU pods and cloud infrastructure</title>
<rect x="1151.1" y="484.5" width="34" height="17" rx="3" fill="#0f172a" fill-opacity="0.94" stroke="#64748b" stroke-width="0.9"/>
<text x="1168.1" y="497.0" text-anchor="middle" font-size="8.5" font-weight="700" fill="#64748b">E04</text></g>
<path d="M 467.6 855.0 Q 854.4 693.8 1270.0 640.0" fill="none" stroke="#64748b" stroke-width="1.5" stroke-opacity="0.72"/>
<g><title>E05 Claude Opus 5 availability on Amazon Bedrock</title>
<rect x="661.6" y="765.8" width="34" height="17" rx="3" fill="#0f172a" fill-opacity="0.94" stroke="#64748b" stroke-width="0.9"/>
<text x="678.6" y="778.3" text-anchor="middle" font-size="8.5" font-weight="700" fill="#64748b">E05</text></g>
<path d="M 1212.4 855.0 Q 1062.7 735.9 1358.3 808.4" fill="none" stroke="#64748b" stroke-width="1.5" stroke-opacity="0.72"/>
<g><title>E06 Facebook, Instagram, WhatsApp, Threads and advertising systems</title>
<rect x="1147.0" y="794.6" width="34" height="17" rx="3" fill="#0f172a" fill-opacity="0.94" stroke="#64748b" stroke-width="0.9"/>
<text x="1164.0" y="807.1" text-anchor="middle" font-size="8.5" font-weight="700" fill="#64748b">E06</text></g>
<path d="M 1055.0 1012.4 Q 995.0 824.3 1245.0 1004.7" fill="none" stroke="#64748b" stroke-width="1.5" stroke-opacity="0.72"/>
<g><title>E07 NVIDIA AI infrastructure for AI factories and SK Telecom AI infrastructure</title>
<rect x="1028.2" y="927.7" width="34" height="17" rx="3" fill="#0f172a" fill-opacity="0.94" stroke="#64748b" stroke-width="0.9"/>
<text x="1045.2" y="940.2" text-anchor="middle" font-size="8.5" font-weight="700" fill="#64748b">E07</text></g>
<path d="M 467.6 425.0 Q 800.7 679.3 1055.0 1012.4" fill="none" stroke="#64748b" stroke-width="1.5" stroke-opacity="0.72"/>
<g><title>E08 HBM and next-generation AI memory ecosystem</title>
<rect x="624.7" y="558.1" width="34" height="17" rx="3" fill="#0f172a" fill-opacity="0.94" stroke="#64748b" stroke-width="0.9"/>
<text x="641.7" y="570.6" text-anchor="middle" font-size="8.5" font-weight="700" fill="#64748b">E08</text></g>
<path d="M 410.0 640.0 Q 787.9 764.5 1061.7 1137.9" fill="none" stroke="#64748b" stroke-width="1.5" stroke-opacity="0.72"/>
<g><title>E09 HBM, 2nm-and-below foundry and 2.3D/2.5D advanced packaging</title>
<rect x="589.5" y="715.4" width="34" height="17" rx="3" fill="#0f172a" fill-opacity="0.94" stroke="#64748b" stroke-width="0.9"/>
<text x="606.5" y="727.9" text-anchor="middle" font-size="8.5" font-weight="700" fill="#64748b">E09</text></g>
<path d="M 840.0 1070.0 Q 840.0 883.8 840.0 1185.0" fill="none" stroke="#64748b" stroke-width="1.5" stroke-opacity="0.72"/>
<g><title>E10 Electric vehicles, energy storage systems and energy services</title>
<rect x="823.0" y="995.0" width="34" height="17" rx="3" fill="#0f172a" fill-opacity="0.94" stroke="#64748b" stroke-width="0.9"/>
<text x="840.0" y="1007.5" text-anchor="middle" font-size="8.5" font-weight="700" fill="#64748b">E10</text></g>
<path d="M 625.0 267.6 Q 840.0 640.0 1055.0 1012.4" fill="none" stroke="#64748b" stroke-width="1.5" stroke-opacity="0.72"/>
<g><title>E11 Advanced-node foundry and advanced packaging for AI GPUs</title>
<rect x="724.1" y="458.7" width="34" height="17" rx="3" fill="#0f172a" fill-opacity="0.94" stroke="#64748b" stroke-width="0.9"/>
<text x="741.1" y="471.2" text-anchor="middle" font-size="8.5" font-weight="700" fill="#64748b">E11</text></g>
<path d="M 625.0 267.6 Q 786.2 439.4 840.0 210.0" fill="none" stroke="#64748b" stroke-width="1.5" stroke-opacity="0.72"/>
<g><title>E12 Advanced-node foundry for Apple A-series and M-series chips</title>
<rect x="687.2" y="321.1" width="34" height="17" rx="3" fill="#0f172a" fill-opacity="0.94" stroke="#64748b" stroke-width="0.9"/>
<text x="704.2" y="333.6" text-anchor="middle" font-size="8.5" font-weight="700" fill="#64748b">E12</text></g>
<path d="M 1055.0 1012.4 Q 838.3 857.6 618.3 1137.9" fill="none" stroke="#64748b" stroke-width="1.5" stroke-opacity="0.72"/>
<g><title>E13 Vera Rubin systems, long-term compute access and compute-platform co-development</title>
<rect x="920.8" y="950.5" width="34" height="17" rx="3" fill="#0f172a" fill-opacity="0.94" stroke="#64748b" stroke-width="0.9"/>
<text x="937.8" y="963.0" text-anchor="middle" font-size="8.5" font-weight="700" fill="#64748b">E13</text></g>
<path d="M 1270.0 640.0 Q 893.8 733.1 625.0 1012.4" fill="none" stroke="#64748b" stroke-width="1.5" stroke-opacity="0.72"/>
<g><title>E14 Trainium-based multi-year, multi-gigawatt AI compute commitment</title>
<rect x="1057.7" y="693.8" width="34" height="17" rx="3" fill="#0f172a" fill-opacity="0.94" stroke="#64748b" stroke-width="0.9"/>
<text x="1074.7" y="706.3" text-anchor="middle" font-size="8.5" font-weight="700" fill="#64748b">E14</text></g>
<path d="M 1270.0 640.0 Q 854.4 693.8 467.6 855.0" fill="none" stroke="#64748b" stroke-width="1.5" stroke-opacity="0.72"/>
<g><title>E15 Trainium-based multi-year, multi-gigawatt AI compute commitment</title>
<rect x="1030.7" y="666.9" width="34" height="17" rx="3" fill="#0f172a" fill-opacity="0.94" stroke="#64748b" stroke-width="0.9"/>
<text x="1047.7" y="679.4" text-anchor="middle" font-size="8.5" font-weight="700" fill="#64748b">E15</text></g>
<path d="M 1055.0 267.6 Q 792.5 638.1 435.0 1004.7" fill="none" stroke="#64748b" stroke-width="1.5" stroke-opacity="0.72"/>
<g><title>E16 Azure cloud and AI services plus Microsoft 365 Copilot</title>
<rect x="889.3" y="457.4" width="34" height="17" rx="3" fill="#0f172a" fill-opacity="0.94" stroke="#64748b" stroke-width="0.9"/>
<text x="906.3" y="469.9" text-anchor="middle" font-size="8.5" font-weight="700" fill="#64748b">E16</text></g>
<path d="M 410.0 640.0 Q 602.9 682.1 321.7 808.4" fill="none" stroke="#f59e0b" stroke-width="1.5" stroke-opacity="0.72"/>
<g><title>E17 Long-term server-memory and AI-infrastructure chip supply contracts</title>
<rect x="462.6" y="658.9" width="34" height="17" rx="3" fill="#0f172a" fill-opacity="0.94" stroke="#f59e0b" stroke-width="0.9"/>
<text x="479.6" y="671.4" text-anchor="middle" font-size="8.5" font-weight="700" fill="#f59e0b">E17</text></g>
<path d="M 467.6 425.0 Q 611.4 572.0 298.0 583.0" fill="none" stroke="#64748b" stroke-width="1.5" stroke-opacity="0.72"/>
<g><title>E18 HBM4, AI server DRAM, eSSD and long-term supply agreements</title>
<rect x="494.9" y="484.5" width="34" height="17" rx="3" fill="#0f172a" fill-opacity="0.94" stroke="#64748b" stroke-width="0.9"/>
<text x="511.9" y="497.0" text-anchor="middle" font-size="8.5" font-weight="700" fill="#64748b">E18</text></g>
<path d="M 467.6 425.0 Q 628.9 518.1 368.0 367.5" fill="none" stroke="#64748b" stroke-width="1.5" stroke-opacity="0.72"/>
<g><title>E19 First open High Bandwidth Flash standard specification for AI inference memory tiers</title>
<rect x="506.9" y="447.5" width="34" height="17" rx="3" fill="#0f172a" fill-opacity="0.94" stroke="#64748b" stroke-width="0.9"/>
<text x="523.9" y="460.0" text-anchor="middle" font-size="8.5" font-weight="700" fill="#64748b">E19</text></g>
<path d="M 625.0 1012.4 Q 893.8 733.1 1270.0 640.0" fill="none" stroke="#64748b" stroke-width="1.5" stroke-opacity="0.72"/>
<g><title>E20 Daybreak Blue and Daybreak Red cyber models available through Amazon Bedrock</title>
<rect x="761.0" y="865.1" width="34" height="17" rx="3" fill="#0f172a" fill-opacity="0.94" stroke="#64748b" stroke-width="0.9"/>
<text x="778.0" y="877.6" text-anchor="middle" font-size="8.5" font-weight="700" fill="#64748b">E20</text></g>
<path d="M 519.7 199.1 Q 706.2 622.9 625.0 1012.4" fill="none" stroke="#64748b" stroke-width="1.5" stroke-opacity="0.72"/>
<g><title>E21 Cerebras-powered GPT-5.6 Sol Ultrafast inference at up to 750 output tokens per second</title>
<rect x="583.9" y="415.4" width="34" height="17" rx="3" fill="#0f172a" fill-opacity="0.94" stroke="#64748b" stroke-width="0.9"/>
<text x="600.9" y="427.9" text-anchor="middle" font-size="8.5" font-weight="700" fill="#64748b">E21</text></g>
<path d="M 1055.0 1012.4 Q 840.0 826.2 625.0 1012.4" fill="none" stroke="#22c55e" stroke-width="1.5" stroke-opacity="0.72"/>
<g><title>E22 NVIDIA DSX full-stack AI compute for approximately 8 IT-GW at PORTS-Pike</title>
<rect x="921.9" y="929.0" width="34" height="17" rx="3" fill="#0f172a" fill-opacity="0.94" stroke="#22c55e" stroke-width="0.9"/>
<text x="938.9" y="941.5" text-anchor="middle" font-size="8.5" font-weight="700" fill="#22c55e">E22</text></g>
<path d="M 726.7 106.9 Q 757.9 599.8 625.0 1012.4" fill="none" stroke="#22c55e" stroke-width="1.5" stroke-opacity="0.72"/>
<g><title>E23 Land, power and shell capacity for approximately 8 IT-GW under a 20-year lease</title>
<rect x="714.6" y="357.2" width="34" height="17" rx="3" fill="#0f172a" fill-opacity="0.94" stroke="#22c55e" stroke-width="0.9"/>
<text x="731.6" y="369.7" text-anchor="middle" font-size="8.5" font-weight="700" fill="#22c55e">E23</text></g>
<circle cx="840.0" cy="210.0" r="29" fill="#a78bfa" fill-opacity="0.20" stroke="#a78bfa" stroke-width="2"/>
<circle cx="840.0" cy="210.0" r="5" fill="#a78bfa"/>
<text x="840.0" y="169.0" text-anchor="middle" font-size="12" font-weight="700" fill="#e5e7eb">Apple</text>
<circle cx="1055.0" cy="267.6" r="29" fill="#a78bfa" fill-opacity="0.20" stroke="#a78bfa" stroke-width="2"/>
<circle cx="1055.0" cy="267.6" r="5" fill="#a78bfa"/>
<text x="1055.0" y="226.6" text-anchor="middle" font-size="12" font-weight="700" fill="#e5e7eb">Microsoft</text>
<circle cx="1212.4" cy="425.0" r="29" fill="#a78bfa" fill-opacity="0.20" stroke="#a78bfa" stroke-width="2"/>
<circle cx="1212.4" cy="425.0" r="5" fill="#a78bfa"/>
<text x="1212.4" y="384.0" text-anchor="middle" font-size="12" font-weight="700" fill="#e5e7eb">Alphabet / Google</text>
<circle cx="1270.0" cy="640.0" r="29" fill="#a78bfa" fill-opacity="0.20" stroke="#a78bfa" stroke-width="2"/>
<circle cx="1270.0" cy="640.0" r="5" fill="#a78bfa"/>
<text x="1270.0" y="599.0" text-anchor="middle" font-size="12" font-weight="700" fill="#e5e7eb">Amazon / AWS</text>
<circle cx="1212.4" cy="855.0" r="29" fill="#a78bfa" fill-opacity="0.20" stroke="#a78bfa" stroke-width="2"/>
<circle cx="1212.4" cy="855.0" r="5" fill="#a78bfa"/>
<text x="1212.4" y="814.0" text-anchor="middle" font-size="12" font-weight="700" fill="#e5e7eb">Meta</text>
<circle cx="1055.0" cy="1012.4" r="29" fill="#a78bfa" fill-opacity="0.20" stroke="#a78bfa" stroke-width="2"/>
<circle cx="1055.0" cy="1012.4" r="5" fill="#a78bfa"/>
<text x="1055.0" y="971.4" text-anchor="middle" font-size="12" font-weight="700" fill="#e5e7eb">NVIDIA</text>
<circle cx="840.0" cy="1070.0" r="29" fill="#a78bfa" fill-opacity="0.20" stroke="#a78bfa" stroke-width="2"/>
<circle cx="840.0" cy="1070.0" r="5" fill="#a78bfa"/>
<text x="840.0" y="1029.0" text-anchor="middle" font-size="12" font-weight="700" fill="#e5e7eb">Tesla</text>
<circle cx="625.0" cy="1012.4" r="29" fill="#a78bfa" fill-opacity="0.20" stroke="#a78bfa" stroke-width="2"/>
<circle cx="625.0" cy="1012.4" r="5" fill="#a78bfa"/>
<text x="625.0" y="971.4" text-anchor="middle" font-size="12" font-weight="700" fill="#e5e7eb">OpenAI</text>
<circle cx="467.6" cy="855.0" r="29" fill="#a78bfa" fill-opacity="0.20" stroke="#a78bfa" stroke-width="2"/>
<circle cx="467.6" cy="855.0" r="5" fill="#a78bfa"/>
<text x="467.6" y="814.0" text-anchor="middle" font-size="12" font-weight="700" fill="#e5e7eb">Anthropic</text>
<circle cx="410.0" cy="640.0" r="29" fill="#a78bfa" fill-opacity="0.20" stroke="#a78bfa" stroke-width="2"/>
<circle cx="410.0" cy="640.0" r="5" fill="#a78bfa"/>
<text x="410.0" y="599.0" text-anchor="middle" font-size="12" font-weight="700" fill="#e5e7eb">Samsung Electronics</text>
<circle cx="467.6" cy="425.0" r="29" fill="#a78bfa" fill-opacity="0.20" stroke="#a78bfa" stroke-width="2"/>
<circle cx="467.6" cy="425.0" r="5" fill="#a78bfa"/>
<text x="467.6" y="384.0" text-anchor="middle" font-size="12" font-weight="700" fill="#e5e7eb">SK Hynix</text>
<circle cx="625.0" cy="267.6" r="29" fill="#a78bfa" fill-opacity="0.20" stroke="#a78bfa" stroke-width="2"/>
<circle cx="625.0" cy="267.6" r="5" fill="#a78bfa"/>
<text x="625.0" y="226.6" text-anchor="middle" font-size="12" font-weight="700" fill="#e5e7eb">TSMC</text>
<circle cx="953.3" cy="106.9" r="29" fill="#a78bfa" fill-opacity="0.20" stroke="#a78bfa" stroke-width="2"/>
<circle cx="953.3" cy="106.9" r="5" fill="#a78bfa"/>
<text x="953.3" y="65.9" text-anchor="middle" font-size="12" font-weight="700" fill="#e5e7eb">Ford</text>
<circle cx="1160.3" cy="199.1" r="29" fill="#a78bfa" fill-opacity="0.20" stroke="#a78bfa" stroke-width="2"/>
<circle cx="1160.3" cy="199.1" r="5" fill="#a78bfa"/>
<text x="1160.3" y="158.1" text-anchor="middle" font-size="12" font-weight="700" fill="#e5e7eb">AMD</text>
<circle cx="1312.0" cy="367.5" r="29" fill="#a78bfa" fill-opacity="0.20" stroke="#a78bfa" stroke-width="2"/>
<circle cx="1312.0" cy="367.5" r="5" fill="#a78bfa"/>
<text x="1312.0" y="326.5" text-anchor="middle" font-size="12" font-weight="700" fill="#e5e7eb">Mistral</text>
<circle cx="1382.0" cy="583.0" r="29" fill="#a78bfa" fill-opacity="0.20" stroke="#a78bfa" stroke-width="2"/>
<circle cx="1382.0" cy="583.0" r="5" fill="#a78bfa"/>
<text x="1382.0" y="542.0" text-anchor="middle" font-size="12" font-weight="700" fill="#e5e7eb">Google Cloud customers</text>
<circle cx="1358.3" cy="808.4" r="29" fill="#a78bfa" fill-opacity="0.20" stroke="#a78bfa" stroke-width="2"/>
<circle cx="1358.3" cy="808.4" r="5" fill="#a78bfa"/>
<text x="1358.3" y="767.4" text-anchor="middle" font-size="12" font-weight="700" fill="#e5e7eb">Meta users and advertisers</text>
<circle cx="1245.0" cy="1004.7" r="29" fill="#a78bfa" fill-opacity="0.20" stroke="#a78bfa" stroke-width="2"/>
<circle cx="1245.0" cy="1004.7" r="5" fill="#a78bfa"/>
<text x="1245.0" y="963.7" text-anchor="middle" font-size="12" font-weight="700" fill="#e5e7eb">SK Group / SK Telecom</text>
<circle cx="1061.7" cy="1137.9" r="22" fill="#94a3b8" fill-opacity="0.20" stroke="#94a3b8" stroke-width="2"/>
<circle cx="1061.7" cy="1137.9" r="5" fill="#94a3b8"/>
<text x="1061.7" y="1103.9" text-anchor="middle" font-size="12" font-weight="700" fill="#e5e7eb">Broadcom</text>
<circle cx="840.0" cy="1185.0" r="29" fill="#a78bfa" fill-opacity="0.20" stroke="#a78bfa" stroke-width="2"/>
<circle cx="840.0" cy="1185.0" r="5" fill="#a78bfa"/>
<text x="840.0" y="1137.0" text-anchor="middle" font-size="12" font-weight="700" fill="#e5e7eb">EV and energy storage</text>
<text x="840.0" y="1151.0" text-anchor="middle" font-size="12" font-weight="700" fill="#e5e7eb">customers</text>
<circle cx="618.3" cy="1137.9" r="29" fill="#a78bfa" fill-opacity="0.20" stroke="#a78bfa" stroke-width="2"/>
<circle cx="618.3" cy="1137.9" r="5" fill="#a78bfa"/>
<text x="618.3" y="1096.9" text-anchor="middle" font-size="12" font-weight="700" fill="#e5e7eb">Safe Superintelligence</text>
<circle cx="435.0" cy="1004.7" r="29" fill="#a78bfa" fill-opacity="0.20" stroke="#a78bfa" stroke-width="2"/>
<circle cx="435.0" cy="1004.7" r="5" fill="#a78bfa"/>
<text x="435.0" y="963.7" text-anchor="middle" font-size="12" font-weight="700" fill="#e5e7eb">Azure and Copilot customers</text>
<circle cx="321.7" cy="808.4" r="29" fill="#a78bfa" fill-opacity="0.20" stroke="#a78bfa" stroke-width="2"/>
<circle cx="321.7" cy="808.4" r="5" fill="#a78bfa"/>
<text x="321.7" y="760.4" text-anchor="middle" font-size="12" font-weight="700" fill="#e5e7eb">Five unnamed global</text>
<text x="321.7" y="774.4" text-anchor="middle" font-size="12" font-weight="700" fill="#e5e7eb">data-center customers</text>
<circle cx="298.0" cy="583.0" r="29" fill="#a78bfa" fill-opacity="0.20" stroke="#a78bfa" stroke-width="2"/>
<circle cx="298.0" cy="583.0" r="5" fill="#a78bfa"/>
<text x="298.0" y="535.0" text-anchor="middle" font-size="12" font-weight="700" fill="#e5e7eb">Around ten unnamed key</text>
<text x="298.0" y="549.0" text-anchor="middle" font-size="12" font-weight="700" fill="#e5e7eb">memory customers</text>
<circle cx="368.0" cy="367.5" r="29" fill="#a78bfa" fill-opacity="0.20" stroke="#a78bfa" stroke-width="2"/>
<circle cx="368.0" cy="367.5" r="5" fill="#a78bfa"/>
<text x="368.0" y="326.5" text-anchor="middle" font-size="12" font-weight="700" fill="#e5e7eb">Sandisk</text>
<circle cx="519.7" cy="199.1" r="29" fill="#a78bfa" fill-opacity="0.20" stroke="#a78bfa" stroke-width="2"/>
<circle cx="519.7" cy="199.1" r="5" fill="#a78bfa"/>
<text x="519.7" y="158.1" text-anchor="middle" font-size="12" font-weight="700" fill="#e5e7eb">Cerebras</text>
<circle cx="726.7" cy="106.9" r="29" fill="#a78bfa" fill-opacity="0.20" stroke="#a78bfa" stroke-width="2"/>
<circle cx="726.7" cy="106.9" r="5" fill="#a78bfa"/>
<text x="726.7" y="65.9" text-anchor="middle" font-size="12" font-weight="700" fill="#e5e7eb">SB Energy</text>
</svg>