<svg xmlns="http://www.w3.org/2000/svg" width="1180" height="860" viewBox="0 0 1180 860">
<rect width="100%" height="100%" fill="#0f172a"/>
<circle cx="590" cy="448" r="160" fill="none" stroke="#334155" stroke-width="1" stroke-opacity="0.75"/>
<circle cx="590" cy="448" r="250" fill="none" stroke="#334155" stroke-width="1" stroke-opacity="0.55"/>
<circle cx="590" cy="448" r="335" fill="none" stroke="#334155" stroke-width="1" stroke-opacity="0.35"/>
<text x="40" y="44" font-size="22" font-weight="800" fill="#f8fafc">本周供应关系图 2026-07-06 至 2026-07-12</text>
<text x="40" y="68" font-size="12" fill="#94a3b8">Obsidian 风格网络图，基于 state/supply_graph_baseline.json 生成。</text>
<text x="40" y="820" font-size="11" fill="#94a3b8">边颜色：绿色=新增，蓝色=强化，橙色=风险/媒体报道，灰色=基线关系。</text>
<path d="M 723.4 81.5 Q 623.3 277.6 590.0 133.0" fill="none" stroke="#22c55e" stroke-width="1.5" stroke-opacity="0.72"/>
<text x="640.0" y="192.4" font-size="9" fill="#22c55e">E01 FBAR 滤波器、先进射频组件、无线连接技术</text>
<path d="M 889.6 545.3 Q 749.3 423.6 927.7 253.0" fill="none" stroke="#22c55e" stroke-width="1.5" stroke-opacity="0.72"/>
<text x="829.0" y="411.4" font-size="9" fill="#22c55e">E02 Amazon Bedrock 上的 OpenAI GPT-5.6 Sol、Ter</text>
<path d="M 775.2 702.8 Q 732.3 528.6 974.1 515.7" fill="none" stroke="#22c55e" stroke-width="1.5" stroke-opacity="0.72"/>
<text x="803.5" y="569.0" font-size="9" fill="#22c55e">E03 Muse Image、Instagram Stories AI 效果、Whats</text>
<path d="M 290.4 545.3 Q 577.8 547.0 840.7 746.8" fill="none" stroke="#22c55e" stroke-width="1.5" stroke-opacity="0.72"/>
<text x="571.7" y="596.5" font-size="9" fill="#22c55e">E04 PM1763 PCIe 6.0 企业级 SSD、9 代 V-NAND、4nm 控</text>
<path d="M 889.6 350.7 Q 664.9 521.2 590.0 838.0" fill="none" stroke="#38bdf8" stroke-width="1.5" stroke-opacity="0.72"/>
<text x="702.3" y="557.7" font-size="9" fill="#38bdf8">E05 Google Cloud AI Hypercomputer、TPU 8t/8i、</text>
<path d="M 775.2 193.2 Q 573.6 459.0 339.3 746.8" fill="none" stroke="#f59e0b" stroke-width="1.5" stroke-opacity="0.72"/>
<text x="565.4" y="464.5" font-size="9" fill="#f59e0b">E06 Xbox 内容组合、Game Pass、多平台发行、开发工具和共享服务</text>
<path d="M 590.0 763.0 Q 494.0 543.7 205.9 515.7" fill="none" stroke="#22c55e" stroke-width="1.5" stroke-opacity="0.72"/>
<text x="446.0" y="591.5" font-size="9" fill="#22c55e">E07 NVIDIA Vera CPU、Vera Rubin、BlueField-4 S</text>
<path d="M 290.4 350.7 Q 430.7 374.9 252.3 253.0" fill="none" stroke="#22c55e" stroke-width="1.5" stroke-opacity="0.72"/>
<text x="351.0" y="338.4" font-size="9" fill="#22c55e">E08 Nasdaq ADR、HBM/DRAM/NAND 资本市场可获得性</text>
<path d="M 404.8 702.8 Q 510.4 420.1 456.6 81.5" fill="none" stroke="#f59e0b" stroke-width="1.5" stroke-opacity="0.72"/>
<text x="470.5" y="406.1" font-size="9" fill="#f59e0b">E09 电动车交付、储能部署、Supercharger/能源生态</text>
<path d="M 404.8 193.2 Q 543.7 463.0 590.0 763.0" fill="none" stroke="#64748b" stroke-width="1.5" stroke-opacity="0.72"/>
<text x="520.6" y="470.6" font-size="9" fill="#64748b">E10 先进逻辑制程、CoWoS/3DFabric 先进封装基线</text>
<circle cx="590.0" cy="133.0" r="29" fill="#a78bfa" fill-opacity="0.20" stroke="#a78bfa" stroke-width="2"/>
<circle cx="590.0" cy="133.0" r="5" fill="#a78bfa"/>
<text x="590.0" y="94.0" text-anchor="middle" font-size="13" font-weight="700" fill="#e5e7eb">Apple</text>
<circle cx="775.2" cy="193.2" r="29" fill="#a78bfa" fill-opacity="0.20" stroke="#a78bfa" stroke-width="2"/>
<circle cx="775.2" cy="193.2" r="5" fill="#a78bfa"/>
<text x="775.2" y="154.2" text-anchor="middle" font-size="13" font-weight="700" fill="#e5e7eb">Microsoft</text>
<circle cx="889.6" cy="350.7" r="29" fill="#a78bfa" fill-opacity="0.20" stroke="#a78bfa" stroke-width="2"/>
<circle cx="889.6" cy="350.7" r="5" fill="#a78bfa"/>
<text x="889.6" y="311.7" text-anchor="middle" font-size="13" font-weight="700" fill="#e5e7eb">Alphabet / Google</text>
<circle cx="889.6" cy="545.3" r="29" fill="#a78bfa" fill-opacity="0.20" stroke="#a78bfa" stroke-width="2"/>
<circle cx="889.6" cy="545.3" r="5" fill="#a78bfa"/>
<text x="889.6" y="506.3" text-anchor="middle" font-size="13" font-weight="700" fill="#e5e7eb">Amazon / AWS</text>
<circle cx="775.2" cy="702.8" r="29" fill="#a78bfa" fill-opacity="0.20" stroke="#a78bfa" stroke-width="2"/>
<circle cx="775.2" cy="702.8" r="5" fill="#a78bfa"/>
<text x="775.2" y="663.8" text-anchor="middle" font-size="13" font-weight="700" fill="#e5e7eb">Meta</text>
<circle cx="590.0" cy="763.0" r="29" fill="#a78bfa" fill-opacity="0.20" stroke="#a78bfa" stroke-width="2"/>
<circle cx="590.0" cy="763.0" r="5" fill="#a78bfa"/>
<text x="590.0" y="724.0" text-anchor="middle" font-size="13" font-weight="700" fill="#e5e7eb">NVIDIA</text>
<circle cx="404.8" cy="702.8" r="29" fill="#a78bfa" fill-opacity="0.20" stroke="#a78bfa" stroke-width="2"/>
<circle cx="404.8" cy="702.8" r="5" fill="#a78bfa"/>
<text x="404.8" y="663.8" text-anchor="middle" font-size="13" font-weight="700" fill="#e5e7eb">Tesla</text>
<circle cx="290.4" cy="545.3" r="29" fill="#a78bfa" fill-opacity="0.20" stroke="#a78bfa" stroke-width="2"/>
<circle cx="290.4" cy="545.3" r="5" fill="#a78bfa"/>
<text x="290.4" y="506.3" text-anchor="middle" font-size="13" font-weight="700" fill="#e5e7eb">Samsung Electronics</text>
<circle cx="290.4" cy="350.7" r="29" fill="#a78bfa" fill-opacity="0.20" stroke="#a78bfa" stroke-width="2"/>
<circle cx="290.4" cy="350.7" r="5" fill="#a78bfa"/>
<text x="290.4" y="311.7" text-anchor="middle" font-size="13" font-weight="700" fill="#e5e7eb">SK Hynix</text>
<circle cx="404.8" cy="193.2" r="29" fill="#a78bfa" fill-opacity="0.20" stroke="#a78bfa" stroke-width="2"/>
<circle cx="404.8" cy="193.2" r="5" fill="#a78bfa"/>
<text x="404.8" y="154.2" text-anchor="middle" font-size="13" font-weight="700" fill="#e5e7eb">TSMC</text>
<circle cx="723.4" cy="81.5" r="22" fill="#94a3b8" fill-opacity="0.20" stroke="#94a3b8" stroke-width="2"/>
<circle cx="723.4" cy="81.5" r="5" fill="#94a3b8"/>
<text x="723.4" y="49.5" text-anchor="middle" font-size="13" font-weight="700" fill="#e5e7eb">Broadcom</text>
<circle cx="927.7" cy="253.0" r="22" fill="#94a3b8" fill-opacity="0.20" stroke="#94a3b8" stroke-width="2"/>
<circle cx="927.7" cy="253.0" r="5" fill="#94a3b8"/>
<text x="927.7" y="221.0" text-anchor="middle" font-size="13" font-weight="700" fill="#e5e7eb">Bedrock/OpenAI模型客户</text>
<circle cx="974.1" cy="515.7" r="22" fill="#94a3b8" fill-opacity="0.20" stroke="#94a3b8" stroke-width="2"/>
<circle cx="974.1" cy="515.7" r="5" fill="#94a3b8"/>
<text x="974.1" y="483.7" text-anchor="middle" font-size="13" font-weight="700" fill="#e5e7eb">Meta AI用户</text>
<circle cx="840.7" cy="746.8" r="22" fill="#94a3b8" fill-opacity="0.20" stroke="#94a3b8" stroke-width="2"/>
<circle cx="840.7" cy="746.8" r="5" fill="#94a3b8"/>
<text x="840.7" y="714.8" text-anchor="middle" font-size="13" font-weight="700" fill="#e5e7eb">AI/HPC服务器客户</text>
<circle cx="590.0" cy="838.0" r="22" fill="#94a3b8" fill-opacity="0.20" stroke="#94a3b8" stroke-width="2"/>
<circle cx="590.0" cy="838.0" r="5" fill="#94a3b8"/>
<text x="590.0" y="806.0" text-anchor="middle" font-size="13" font-weight="700" fill="#e5e7eb">AI基础设施客户</text>
<circle cx="339.3" cy="746.8" r="22" fill="#94a3b8" fill-opacity="0.20" stroke="#94a3b8" stroke-width="2"/>
<circle cx="339.3" cy="746.8" r="5" fill="#94a3b8"/>
<text x="339.3" y="714.8" text-anchor="middle" font-size="13" font-weight="700" fill="#e5e7eb">Xbox玩家/开发者</text>
<circle cx="205.9" cy="515.7" r="22" fill="#94a3b8" fill-opacity="0.20" stroke="#94a3b8" stroke-width="2"/>
<circle cx="205.9" cy="515.7" r="5" fill="#94a3b8"/>
<text x="205.9" y="483.7" text-anchor="middle" font-size="13" font-weight="700" fill="#e5e7eb">Perplexity/AI工厂客户</text>
<circle cx="252.3" cy="253.0" r="22" fill="#94a3b8" fill-opacity="0.20" stroke="#94a3b8" stroke-width="2"/>
<circle cx="252.3" cy="253.0" r="5" fill="#94a3b8"/>
<text x="252.3" y="221.0" text-anchor="middle" font-size="13" font-weight="700" fill="#e5e7eb">全球投资者/AI生态</text>
<circle cx="456.6" cy="81.5" r="22" fill="#94a3b8" fill-opacity="0.20" stroke="#94a3b8" stroke-width="2"/>
<circle cx="456.6" cy="81.5" r="5" fill="#94a3b8"/>
<text x="456.6" y="49.5" text-anchor="middle" font-size="13" font-weight="700" fill="#e5e7eb">EV/储能客户</text>
</svg>