<svg xmlns="http://www.w3.org/2000/svg" width="1180" height="860" viewBox="0 0 1180 860">
<rect width="100%" height="100%" fill="#0f172a"/>
<circle cx="590" cy="442" r="160" fill="none" stroke="#334155" stroke-width="1" stroke-opacity="0.75"/>
<circle cx="590" cy="442" r="250" fill="none" stroke="#334155" stroke-width="1" stroke-opacity="0.55"/>
<circle cx="590" cy="442" r="335" fill="none" stroke="#334155" stroke-width="1" stroke-opacity="0.35"/>
<text x="40" y="44" font-size="22" font-weight="800" fill="#f8fafc">2026 Product-Level Upstream/Downstream Map For Ten Covered Companies</text>
<text x="40" y="68" font-size="12" fill="#94a3b8">Obsidian-style graph view. Source baseline: Latest official annual reports, investor relations pages, company newsroom posts, and regulatory filings available in 2026; media-reported relationshi</text>
<text x="40" y="820" font-size="11" fill="#94a3b8">Edge colors: green=current-year official, blue=official baseline, amber=media/needs revalidation.</text>
<path d="M 404.8 187.2 Q 543.7 299.5 590.0 127.0" fill="none" stroke="#38bdf8" stroke-width="1.45" stroke-opacity="0.68"/>
<text x="520.6" y="228.3" font-size="9" fill="#38bdf8" fill-opacity="0.92">P01 advanced-node foundry for Apple silico</text>
<path d="M 404.8 187.2 Q 543.7 457.0 590.0 757.0" fill="none" stroke="#38bdf8" stroke-width="1.45" stroke-opacity="0.68"/>
<text x="520.6" y="464.6" font-size="9" fill="#38bdf8" fill-opacity="0.92">P02 advanced-node foundry and packaging fo</text>
<path d="M 290.4 344.7 Q 515.1 496.4 590.0 757.0" fill="none" stroke="#22c55e" stroke-width="1.45" stroke-opacity="0.68"/>
<text x="477.7" y="523.6" font-size="9" fill="#22c55e" fill-opacity="0.92">P03 HBM for AI accelerators</text>
<path d="M 290.4 539.3 Q 515.1 545.1 590.0 757.0" fill="none" stroke="#38bdf8" stroke-width="1.45" stroke-opacity="0.68"/>
<text x="477.7" y="596.6" font-size="9" fill="#38bdf8" fill-opacity="0.92">P04 HBM/DRAM supply baseline</text>
<path d="M 590.0 757.0 Q 664.9 545.1 889.6 539.3" fill="none" stroke="#22c55e" stroke-width="1.45" stroke-opacity="0.68"/>
<text x="702.3" y="596.6" font-size="9" fill="#22c55e" fill-opacity="0.92">P05 GPU and AI infrastructure on AWS</text>
<path d="M 590.0 757.0 Q 636.3 457.0 775.2 187.2" fill="none" stroke="#38bdf8" stroke-width="1.45" stroke-opacity="0.68"/>
<text x="659.4" y="464.6" font-size="9" fill="#38bdf8" fill-opacity="0.92">P06 AI accelerator ecosystem for Azure</text>
<path d="M 889.6 539.3 Q 711.2 530.0 775.2 696.8" fill="none" stroke="#64748b" stroke-width="1.45" stroke-opacity="0.68"/>
<text x="771.8" y="574.1" font-size="9" fill="#64748b" fill-opacity="0.92">P07 cloud CPU/AI services baseline</text>
<path d="M 290.4 539.3 Q 515.1 387.6 590.0 127.0" fill="none" stroke="#38bdf8" stroke-width="1.45" stroke-opacity="0.68"/>
<text x="477.7" y="360.4" font-size="9" fill="#38bdf8" fill-opacity="0.92">P08 memory/display component baseline</text>
<path d="M 590.0 757.0 Q 543.7 584.5 404.8 696.8" fill="none" stroke="#38bdf8" stroke-width="1.45" stroke-opacity="0.68"/>
<text x="520.6" y="655.7" font-size="9" fill="#38bdf8" fill-opacity="0.92">P09 automotive/AI compute ecosystem baseli</text>
<circle cx="590.0" cy="127.0" r="27" fill="#60a5fa" fill-opacity="0.22" stroke="#60a5fa" stroke-width="2.2"/>
<circle cx="590.0" cy="127.0" r="5.2" fill="#60a5fa"/>
<text x="590.0" y="89.0" text-anchor="middle" font-size="13" font-weight="700" fill="#e5e7eb">Apple</text>
<text x="590.0" y="170.0" text-anchor="middle" font-size="9.5" fill="#94a3b8">iPhone, Mac, iPad, Wearables</text>
<circle cx="775.2" cy="187.2" r="27" fill="#34d399" fill-opacity="0.22" stroke="#34d399" stroke-width="2.2"/>
<circle cx="775.2" cy="187.2" r="5.2" fill="#34d399"/>
<text x="775.2" y="149.2" text-anchor="middle" font-size="13" font-weight="700" fill="#e5e7eb">Microsoft</text>
<text x="775.2" y="230.2" text-anchor="middle" font-size="9.5" fill="#94a3b8">Azure, Microsoft 365, Windows, GitHub</text>
<circle cx="889.6" cy="344.7" r="27" fill="#34d399" fill-opacity="0.22" stroke="#34d399" stroke-width="2.2"/>
<circle cx="889.6" cy="344.7" r="5.2" fill="#34d399"/>
<text x="889.6" y="306.7" text-anchor="middle" font-size="13" font-weight="700" fill="#e5e7eb">Alphabet / Google</text>
<text x="889.6" y="387.7" text-anchor="middle" font-size="9.5" fill="#94a3b8">Search, YouTube, Google Cloud, Gemini</text>
<circle cx="889.6" cy="539.3" r="27" fill="#34d399" fill-opacity="0.22" stroke="#34d399" stroke-width="2.2"/>
<circle cx="889.6" cy="539.3" r="5.2" fill="#34d399"/>
<text x="889.6" y="501.3" text-anchor="middle" font-size="13" font-weight="700" fill="#e5e7eb">Amazon / AWS</text>
<text x="889.6" y="582.3" text-anchor="middle" font-size="9.5" fill="#94a3b8">AWS, Marketplace, Prime, Ads</text>
<circle cx="775.2" cy="696.8" r="27" fill="#34d399" fill-opacity="0.22" stroke="#34d399" stroke-width="2.2"/>
<circle cx="775.2" cy="696.8" r="5.2" fill="#34d399"/>
<text x="775.2" y="658.8" text-anchor="middle" font-size="13" font-weight="700" fill="#e5e7eb">Meta</text>
<text x="775.2" y="739.8" text-anchor="middle" font-size="9.5" fill="#94a3b8">Facebook, Instagram, WhatsApp, Threads</text>
<circle cx="590.0" cy="757.0" r="27" fill="#fbbf24" fill-opacity="0.22" stroke="#fbbf24" stroke-width="2.2"/>
<circle cx="590.0" cy="757.0" r="5.2" fill="#fbbf24"/>
<text x="590.0" y="719.0" text-anchor="middle" font-size="13" font-weight="700" fill="#e5e7eb">NVIDIA</text>
<text x="590.0" y="800.0" text-anchor="middle" font-size="9.5" fill="#94a3b8">Data center GPU, Networking, CUDA, AI</text>
<text x="590.0" y="813.0" text-anchor="middle" font-size="9.5" fill="#94a3b8">software</text>
<circle cx="404.8" cy="696.8" r="27" fill="#fb7185" fill-opacity="0.22" stroke="#fb7185" stroke-width="2.2"/>
<circle cx="404.8" cy="696.8" r="5.2" fill="#fb7185"/>
<text x="404.8" y="658.8" text-anchor="middle" font-size="13" font-weight="700" fill="#e5e7eb">Tesla</text>
<text x="404.8" y="739.8" text-anchor="middle" font-size="9.5" fill="#94a3b8">EVs, Energy storage, Solar, FSD</text>
<circle cx="290.4" cy="539.3" r="27" fill="#c084fc" fill-opacity="0.22" stroke="#c084fc" stroke-width="2.2"/>
<circle cx="290.4" cy="539.3" r="5.2" fill="#c084fc"/>
<text x="290.4" y="501.3" text-anchor="middle" font-size="13" font-weight="700" fill="#e5e7eb">Samsung Electronics</text>
<text x="290.4" y="582.3" text-anchor="middle" font-size="9.5" fill="#94a3b8">Memory, Foundry, OLED, Mobile devices</text>
<circle cx="290.4" cy="344.7" r="27" fill="#c084fc" fill-opacity="0.22" stroke="#c084fc" stroke-width="2.2"/>
<circle cx="290.4" cy="344.7" r="5.2" fill="#c084fc"/>
<text x="290.4" y="306.7" text-anchor="middle" font-size="13" font-weight="700" fill="#e5e7eb">SK Hynix</text>
<text x="290.4" y="387.7" text-anchor="middle" font-size="9.5" fill="#94a3b8">DRAM, NAND, HBM, CXL memory</text>
<circle cx="404.8" cy="187.2" r="27" fill="#fbbf24" fill-opacity="0.22" stroke="#fbbf24" stroke-width="2.2"/>
<circle cx="404.8" cy="187.2" r="5.2" fill="#fbbf24"/>
<text x="404.8" y="149.2" text-anchor="middle" font-size="13" font-weight="700" fill="#e5e7eb">TSMC</text>
<text x="404.8" y="230.2" text-anchor="middle" font-size="9.5" fill="#94a3b8">Advanced logic foundry, Specialty</text>
<text x="404.8" y="243.2" text-anchor="middle" font-size="9.5" fill="#94a3b8">technologies, 3DFabric, CoWoS</text>
</svg>