<svg xmlns="http://www.w3.org/2000/svg" width="850" height="760" viewBox="0 0 850 760">
<defs><marker id="arrow" markerWidth="10" markerHeight="10" refX="8" refY="3" orient="auto"><path d="M0,0 L0,6 L9,3 z" fill="#475569"/></marker></defs>
<rect width="100%" height="100%" fill="#ffffff"/>
<text x="32" y="34" font-size="20" font-weight="800" fill="#0f172a">2026 Product-Level Upstream/Downstream Map For Ten Covered Companies</text>
<text x="32" y="56" font-size="12" fill="#475569">Source baseline: Latest official annual reports, investor relations pages, company newsroom posts, and regulatory filings available in 2026; media-reported relationships are labeled separately.</text>
<path d="M 770 568 C 420.0 568, 420.0 118, 70 118" fill="none" stroke="#475569" stroke-width="1.8" marker-end="url(#arrow)"/>
<text x="340.0" y="339.0" font-size="10" fill="#475569">advanced-node foundry for Apple silicon</text>
<path d="M 770 568 C 620.0 568, 620.0 148, 470 148" fill="none" stroke="#475569" stroke-width="1.8" marker-end="url(#arrow)"/>
<text x="540.0" y="354.0" font-size="10" fill="#475569">advanced-node foundry and packaging for AI chips</text>
<path d="M 770 428 C 620.0 428, 620.0 148, 470 148" fill="none" stroke="#166534" stroke-width="1.8" marker-end="url(#arrow)"/>
<text x="540.0" y="284.0" font-size="10" fill="#166534">HBM for AI accelerators</text>
<path d="M 770 288 C 620.0 288, 620.0 148, 470 148" fill="none" stroke="#475569" stroke-width="1.8" marker-end="url(#arrow)"/>
<text x="540.0" y="214.0" font-size="10" fill="#475569">HBM/DRAM supply baseline</text>
<path d="M 770 148 C 420.0 148, 420.0 448, 70 448" fill="none" stroke="#166534" stroke-width="1.8" marker-end="url(#arrow)"/>
<text x="340.0" y="294.0" font-size="10" fill="#166534">GPU and AI infrastructure on AWS</text>
<path d="M 770 148 C 420.0 148, 420.0 228, 70 228" fill="none" stroke="#475569" stroke-width="1.8" marker-end="url(#arrow)"/>
<text x="340.0" y="184.0" font-size="10" fill="#475569">AI accelerator ecosystem for Azure</text>
<path d="M 370 448 C 220.0 448, 220.0 558, 70 558" fill="none" stroke="#475569" stroke-width="1.8" marker-end="url(#arrow)"/>
<text x="140.0" y="499.0" font-size="10" fill="#475569">cloud CPU/AI services baseline</text>
<path d="M 770 288 C 420.0 288, 420.0 118, 70 118" fill="none" stroke="#475569" stroke-width="1.8" marker-end="url(#arrow)"/>
<text x="340.0" y="199.0" font-size="10" fill="#475569">memory/display component baseline</text>
<path d="M 770 148 C 420.0 148, 420.0 668, 70 668" fill="none" stroke="#475569" stroke-width="1.8" marker-end="url(#arrow)"/>
<text x="340.0" y="404.0" font-size="10" fill="#475569">automotive/AI compute ecosystem baseline</text>
<rect id="n_apple" x="70" y="90" width="300" height="82" rx="10" fill="#dbeafe" stroke="#334155" stroke-width="1.4"/>
<text x="84" y="113" font-size="14" font-weight="700" fill="#0f172a">Apple</text>
<text x="84" y="130" font-size="11" fill="#334155">iPhone, Mac, iPad, Wearables, Services,</text>
<text x="84" y="147" font-size="11" fill="#334155">Apple silicon</text>
<rect id="n_microsoft" x="70" y="200" width="300" height="82" rx="10" fill="#dcfce7" stroke="#334155" stroke-width="1.4"/>
<text x="84" y="223" font-size="14" font-weight="700" fill="#0f172a">Microsoft</text>
<text x="84" y="240" font-size="11" fill="#334155">Azure, Microsoft 365, Windows, GitHub,</text>
<text x="84" y="257" font-size="11" fill="#334155">LinkedIn, Xbox</text>
<rect id="n_alphabet___google" x="70" y="310" width="300" height="82" rx="10" fill="#dcfce7" stroke="#334155" stroke-width="1.4"/>
<text x="84" y="333" font-size="14" font-weight="700" fill="#0f172a">Alphabet / Google</text>
<text x="84" y="350" font-size="11" fill="#334155">Search, YouTube, Google Cloud, Gemini,</text>
<text x="84" y="367" font-size="11" fill="#334155">Android, Pixel</text>
<rect id="n_amazon___aws" x="70" y="420" width="300" height="82" rx="10" fill="#dcfce7" stroke="#334155" stroke-width="1.4"/>
<text x="84" y="443" font-size="14" font-weight="700" fill="#0f172a">Amazon / AWS</text>
<text x="84" y="460" font-size="11" fill="#334155">AWS, Marketplace, Prime, Ads, Logistics,</text>
<text x="84" y="477" font-size="11" fill="#334155">Devices</text>
<rect id="n_meta" x="70" y="530" width="300" height="82" rx="10" fill="#dcfce7" stroke="#334155" stroke-width="1.4"/>
<text x="84" y="553" font-size="14" font-weight="700" fill="#0f172a">Meta</text>
<text x="84" y="570" font-size="11" fill="#334155">Facebook, Instagram, WhatsApp, Threads,</text>
<text x="84" y="587" font-size="11" fill="#334155">Meta AI, Reality Labs</text>
<rect id="n_nvidia" x="470" y="120" width="300" height="82" rx="10" fill="#fef3c7" stroke="#334155" stroke-width="1.4"/>
<text x="484" y="143" font-size="14" font-weight="700" fill="#0f172a">NVIDIA</text>
<text x="484" y="160" font-size="11" fill="#334155">Data center GPU, Networking, CUDA, AI</text>
<text x="484" y="177" font-size="11" fill="#334155">software, Gaming GPU, Automotive</text>
<rect id="n_tesla" x="70" y="640" width="300" height="82" rx="10" fill="#fee2e2" stroke="#334155" stroke-width="1.4"/>
<text x="84" y="663" font-size="14" font-weight="700" fill="#0f172a">Tesla</text>
<text x="84" y="680" font-size="11" fill="#334155">EVs, Energy storage, Solar, FSD,</text>
<text x="84" y="697" font-size="11" fill="#334155">Supercharging, Robotics</text>
<rect id="n_samsung_electronics" x="470" y="260" width="300" height="82" rx="10" fill="#fae8ff" stroke="#334155" stroke-width="1.4"/>
<text x="484" y="283" font-size="14" font-weight="700" fill="#0f172a">Samsung Electronics</text>
<text x="484" y="300" font-size="11" fill="#334155">Memory, Foundry, OLED, Mobile devices,</text>
<text x="484" y="317" font-size="11" fill="#334155">TV/display, Appliances</text>
<rect id="n_sk_hynix" x="470" y="400" width="300" height="82" rx="10" fill="#fae8ff" stroke="#334155" stroke-width="1.4"/>
<text x="484" y="423" font-size="14" font-weight="700" fill="#0f172a">SK Hynix</text>
<text x="484" y="440" font-size="11" fill="#334155">DRAM, NAND, HBM, CXL memory, Enterprise</text>
<text x="484" y="457" font-size="11" fill="#334155">SSD, Advanced packaging</text>
<rect id="n_tsmc" x="470" y="540" width="300" height="99" rx="10" fill="#fef3c7" stroke="#334155" stroke-width="1.4"/>
<text x="484" y="563" font-size="14" font-weight="700" fill="#0f172a">TSMC</text>
<text x="484" y="580" font-size="11" fill="#334155">Advanced logic foundry, Specialty</text>
<text x="484" y="597" font-size="11" fill="#334155">technologies, 3DFabric, CoWoS, N3/N2</text>
<text x="484" y="614" font-size="11" fill="#334155">nodes, Wafer services</text>
<text x="32" y="735" font-size="11" fill="#64748b">Green: official/current-year evidence. Brown: media-reported or weaker evidence. Public report, no confidential data.</text>
</svg>